<?xml version="1.0" ?><svg id="Layer_1" style="enable-background:new 0 0 96 96;" version="1.1" viewBox="0 0 96 96" xml:space="preserve" xmlns="http://www.w3.org/2000/svg" xmlns:xlink="http://www.w3.org/1999/xlink"><path d="M50.9,72.3L40,66.9C35.7,71.4,29.7,74,23.3,74C10.4,74,0,63.6,0,50.8s10.4-23.3,23.3-23.3c4.5,0,8.9,1.3,12.6,3.7l13.6-6.8  c0-0.4,0-0.8,0-1.2C49.5,10.4,59.9,0,72.7,0C85.6,0,96,10.4,96,23.3S85.6,46.5,72.7,46.5c-6.4,0-12.4-2.6-16.8-7.2l-10.3,5.2  c0.6,2,0.9,4.1,0.9,6.2c0,0.4,0,0.8,0,1.2l11.1,5.5c4.2-4.2,9.9-6.6,15.9-6.6C85.9,50.9,96,61,96,73.4S85.9,96,73.4,96  C61,96,50.9,85.9,50.9,73.4C50.9,73.1,50.9,72.7,50.9,72.3L50.9,72.3z M73.4,54.9c-6.1,0-11.5,3-14.9,7.5l-16.4-8.2  c0.2-1.1,0.3-2.3,0.3-3.5c0-2.9-0.7-5.7-1.8-8.2L57,34.3c3.5,4.9,9.2,8.2,15.7,8.2c10.6,0,19.3-8.6,19.3-19.2S83.4,4,72.7,4  s-19.3,8.6-19.3,19.3c0,1.2,0.1,2.3,0.3,3.5l-18.3,9.2c-3.3-2.7-7.6-4.4-12.2-4.4C12.6,31.5,4,40.1,4,50.8S12.6,70,23.3,70  c6.5,0,12.2-3.2,15.7-8.1L55.2,70c-0.2,1.1-0.3,2.3-0.3,3.5c0,10.3,8.3,18.6,18.6,18.6S92,83.7,92,73.4C92,63.2,83.7,54.9,73.4,54.9  z"/></svg>