<svg width="128" height="128" viewBox="0 0 128 128" xmlns="http://www.w3.org/2000/svg">
  <defs>
    <radialGradient id="bg" cx="50%" cy="50%" r="50%">
      <stop offset="0%" stop-color="#111A2E"></stop>
      <stop offset="100%" stop-color="#05070F"></stop>
    </radialGradient>

    <linearGradient id="g128" x1="0" y1="0" x2="1" y2="1">
      <stop offset="0%" stop-color="#00E0C6"></stop>
      <stop offset="100%" stop-color="#007CF0"></stop>
    </linearGradient>
  </defs>

  <!-- Background -->
  <circle cx="64" cy="64" r="60" fill="url(#bg)"></circle>

  <!-- Klein bottle main contour -->
  <path d="M64 20
           C96 20, 112 52, 84 64
           C56 76, 76 92, 108 84
           C124 80, 108 112, 64 112
           C20 112, 4 80, 20 84
           C52 92, 72 76, 44 64
           C16 52, 32 20, 64 20 Z" fill="none" stroke="url(#g128)" stroke-width="6" stroke-linecap="round" stroke-linejoin="round"></path>

  <!-- Subtle internal crossing hint -->
  <path d="M52 56 C64 64, 64 64, 76 72" stroke="#FFFFFF" stroke-width="3" fill="none" opacity="0.4" stroke-linecap="round"></path>

  <!-- Sound emission -->
  <path d="M96 48 Q118 64 96 80" stroke="#FFFFFF" stroke-width="5" fill="none" stroke-linecap="round"></path>

  <path d="M106 40 Q140 64 106 88" stroke="#FFFFFF" stroke-width="5" fill="none" stroke-linecap="round" opacity="0.5"></path>
</svg>