<?xml version="1.0" ?><!DOCTYPE svg  PUBLIC '-//W3C//DTD SVG 1.1//EN'  'http://www.w3.org/Graphics/SVG/1.1/DTD/svg11.dtd'><svg height="124.972px" style="enable-background:new 0 0 103.015 124.972;" version="1.1" viewBox="0 0 103.015 124.972" width="103.015px" xml:space="preserve" xmlns="http://www.w3.org/2000/svg" xmlns:xlink="http://www.w3.org/1999/xlink"><g id="Music"><path d="   M101.315,14.212l-0.019-7.352c0.713-7.312-8.003-5.017-8.003-5.017L37.575,13.516c-7.216,1.416-6.549,5.218-6.675,7.35   c-0.09,14.498-0.028,63.169-0.028,63.169c-0.005,11.531-4.039,11.219-7.347,10.943c-2.004-0.168-3.5-0.088-3.5-0.088   c-10.227-0.004-18.519,6.391-18.522,14.281c-0.003,7.891,8.283,14.293,18.509,14.297c10.225,0.004,18.013-3.42,18.27-13.863   l0.171-6.098l-0.226-58.909c0,0-0.164-4.909,4.007-6.015l47.044-10.674l12.095-2.793l0.139,63.544l-0.108,6.58   c-0.379,9.525-8.107,14.221-18.334,14.217c-10.225-0.004-18.511-6.404-18.508-14.297c0.004-7.891,8.296-14.283,18.521-14.279   c1.795,0,3.531,0.199,5.174,0.568l0.916,0.189c5.335,1.674,4.671-2.838,4.757-6.268c0.004-9.779,0.018-39.104,0.018-39.104" style="fill:none;stroke:#000000;stroke-width:3.0053;stroke-linecap:round;stroke-linejoin:round;stroke-miterlimit:10;"/></g><g id="Layer_1"/></svg>